<svg xmlns="http://www.w3.org/2000/svg" width="68" height="68" fill="none"><circle cx="34" cy="34" r="34" fill="#01689B" fill-opacity=".15"/><path fill="#01689B" d="M45.693 34.236a13.972 13.972 0 0 1-.122 1.814l.07-.509a13.851 13.851 0 0 1-.954 3.497c.064-.158.13-.311.194-.461a14.02 14.02 0 0 1-1.767 3.015l.3-.394a13.837 13.837 0 0 1-2.45 2.448l.395-.3a13.578 13.578 0 0 1-3.017 1.763l.462-.19a13.658 13.658 0 0 1-3.498.954l.512-.07a14.093 14.093 0 0 1-3.636 0l.509.07a13.809 13.809 0 0 1-3.494-.954l.457.19a13.852 13.852 0 0 1-3.016-1.763l.394.3a13.726 13.726 0 0 1-2.453-2.448l.3.394a13.58 13.58 0 0 1-1.775-3.02l.193.462a13.537 13.537 0 0 1-.958-3.497l.071.509a13.981 13.981 0 0 1 0-3.63l-.07.508a13.62 13.62 0 0 1 .957-3.493c-.067.154-.134.308-.193.457a13.844 13.844 0 0 1 1.763-3.015l-.3.394a13.748 13.748 0 0 1 2.453-2.452c-.134.099-.26.197-.394.3a13.764 13.764 0 0 1 3.017-1.762l-.458.189a13.633 13.633 0 0 1 3.518-.954l-.509.07a14.031 14.031 0 0 1 3.636 0l-.513-.07c1.203.163 2.38.483 3.498.954l-.461-.19c1.076.458 2.09 1.05 3.017 1.763l-.395-.3a13.855 13.855 0 0 1 2.45 2.452c-.1-.134-.198-.26-.3-.394.714.926 1.308 1.94 1.767 3.015a14.366 14.366 0 0 1-.194-.457c.472 1.117.793 2.291.955 3.493l-.071-.509c.078.603.119 1.21.122 1.818.004.508.205.995.56 1.36a1.925 1.925 0 0 0 3.277-1.357 15.454 15.454 0 0 0-2.804-8.893 14.946 14.946 0 0 0-3.486-3.583 15.532 15.532 0 0 0-4.054-2.176 15.31 15.31 0 0 0-4.665-.887 15.463 15.463 0 0 0-12.434 5.519 17.295 17.295 0 0 0-1.464 2.038c-.424.73-.793 1.492-1.104 2.278a15.518 15.518 0 0 0-.63 9.414 15.06 15.06 0 0 0 1.782 4.305 15.469 15.469 0 0 0 6.751 6.055c.771.363 1.569.668 2.386.91.843.222 1.7.38 2.567.473 3.93.416 7.869-.683 11.015-3.072a15.503 15.503 0 0 0 5.915-9.783c.141-.856.218-1.722.229-2.59a1.994 1.994 0 0 0-.56-1.364 1.933 1.933 0 0 0-2.73 0 2.026 2.026 0 0 0-.563 1.368v-.011Z"/><path fill="#01689B" d="M35.916 24.882v-7.959a2.002 2.002 0 0 0-.56-1.364 1.944 1.944 0 0 0-2.729 0 1.994 1.994 0 0 0-.56 1.364v7.959c.007.51.207.997.56 1.364a1.944 1.944 0 0 0 2.73 0c.35-.369.55-.855.56-1.364Zm0 26.191v-7.955a2.002 2.002 0 0 0-.56-1.364 1.933 1.933 0 0 0-2.729 0 1.994 1.994 0 0 0-.56 1.364v7.955c.007.509.207.997.56 1.364a1.933 1.933 0 0 0 2.73 0c.35-.369.55-.856.56-1.364ZM16.928 36.16h7.943a2 2 0 0 0 1.364-.563 1.94 1.94 0 0 0-.012-2.724 2 2 0 0 0-1.364-.564h-7.93a2.01 2.01 0 0 0-1.365.564 1.927 1.927 0 0 0 0 2.724 2.02 2.02 0 0 0 1.364.563Zm26.186 0h7.962c.51-.007.998-.209 1.364-.563a1.935 1.935 0 0 0 0-2.724 2 2 0 0 0-1.364-.564h-7.962c-.51.005-.997.207-1.36.564a1.927 1.927 0 0 0 0 2.724c.365.353.851.555 1.36.563Zm-9.122-7.245a5.168 5.168 0 0 0-2.95.902 7.01 7.01 0 0 0-.753.604 5.51 5.51 0 0 0-.65.788 5.27 5.27 0 0 0-.762 4.478 5.18 5.18 0 0 0 1.617 2.55c.24.203.493.39.757.56.29.17.595.312.911.426.506.19 1.038.3 1.578.323a5.297 5.297 0 0 0 5.012-2.944c.144-.297.266-.604.363-.919a5.97 5.97 0 0 0 .173-1.017 5.17 5.17 0 0 0-.106-1.577 5.085 5.085 0 0 0-1.668-2.81 6.02 6.02 0 0 0-1.807-1.049 4.997 4.997 0 0 0-1.715-.288 2 2 0 0 0-1.365.564 1.927 1.927 0 0 0 1.365 3.288c.16 0 .319.01.477.031l-.513-.067c.29.042.574.12.844.233l-.457-.194c.262.118.51.264.741.434l-.394-.3c.238.184.452.397.635.635-.099-.134-.201-.26-.3-.394.173.222.32.462.438.718l-.197-.442c.112.27.191.554.236.844l-.07-.509a3.51 3.51 0 0 1 0 .954l.07-.512a3.49 3.49 0 0 1-.236.843c.067-.154.134-.307.193-.457a3.622 3.622 0 0 1-.43.737l.3-.394a3.72 3.72 0 0 1-.635.635l.394-.3c-.23.17-.48.313-.741.43l.457-.194c-.27.112-.554.191-.844.237l.513-.071a3.514 3.514 0 0 1-.954 0l.512.07a4.01 4.01 0 0 1-.844-.247l.458.193a3.656 3.656 0 0 1-.738-.434l.395.304a3.72 3.72 0 0 1-.635-.635l.3.394a3.832 3.832 0 0 1-.43-.737c.067.154.13.308.193.457a3.61 3.61 0 0 1-.233-.843c0 .17.044.343.067.512a3.511 3.511 0 0 1 0-.954c-.023.166-.047.34-.067.509.043-.29.121-.573.233-.844l-.193.461c.115-.262.26-.51.43-.74l-.3.394a3.55 3.55 0 0 1 .635-.631l-.395.3a3.83 3.83 0 0 1 .738-.434c-.154.067-.308.134-.458.193.271-.111.555-.19.844-.233l-.512.067c.157 0 .315-.027.477-.031.51-.008.998-.21 1.364-.564a1.928 1.928 0 0 0 0-2.724 2.052 2.052 0 0 0-1.364-.552l-.004-.027Z"/></svg>