<svg xmlns="http://www.w3.org/2000/svg" width="24" height="24" viewBox="0 0 24 24"><path d="M17.9923 16.1023L25 23.1101L23.1101 25L16.1023 17.9923C14.4161 19.2806 12.3089 20.0459 10.0229 20.0459C4.48742 20.0459 0 15.5584 0 10.0229C0 4.48742 4.48742 0 10.0229 0C15.5584 0 20.0459 4.48742 20.0459 10.0229C20.0459 12.3089 19.2806 14.4161 17.9923 16.1023ZM10.0229 17.3731C14.0823 17.3731 17.3731 14.0823 17.3731 10.0229C17.3731 5.96355 14.0823 2.67278 10.0229 2.67278C5.96355 2.67278 2.67278 5.96355 2.67278 10.0229C2.67278 14.0823 5.96355 17.3731 10.0229 17.3731Z" fill="currentColor"></path></svg>
