<?xml version="1.0" standalone="no"?>
<!DOCTYPE svg PUBLIC "-//W3C//DTD SVG 20010904//EN"
 "http://www.w3.org/TR/2001/REC-SVG-20010904/DTD/svg10.dtd">
<svg version="1.0" xmlns="http://www.w3.org/2000/svg"
 width="260.000000pt" height="260.000000pt" viewBox="0 0 260.000000 260.000000"
 preserveAspectRatio="xMidYMid meet">
<metadata>
Created by potrace 1.11, written by Peter Selinger 2001-2013
</metadata>
<g transform="translate(0.000000,260.000000) scale(0.100000,-0.100000)"
fill="#000000" stroke="none">
<path d="M0 1300 l0 -1300 1300 0 1300 0 0 1300 0 1300 -1300 0 -1300 0 0
-1300z m1313 1007 c-1 -21 2 -25 22 -24 13 1 23 -2 22 -8 -1 -5 -12 -10 -24
-10 -18 1 -23 -5 -23 -27 0 -17 7 -31 20 -38 27 -15 25 -46 -4 -65 -19 -12
-30 -14 -44 -6 -35 18 -38 63 -6 75 8 3 14 18 14 34 0 26 -3 29 -25 24 -19 -3
-25 0 -25 13 0 13 6 15 31 10 28 -6 30 -5 21 12 -11 22 -5 46 12 40 6 -2 10
-16 9 -30z m-104 -198 c26 -25 31 -33 20 -40 -21 -13 -28 -11 -41 11 -20 31
-48 26 -48 -9 0 -49 20 -92 40 -86 25 8 44 -20 37 -55 -9 -41 21 -58 54 -32
l22 19 -24 32 c-29 39 -18 65 27 65 57 0 71 -30 33 -70 -22 -24 -20 -38 10
-53 13 -7 24 -6 39 5 18 13 20 18 9 34 -15 26 2 56 31 53 22 -3 42 38 42 87 0
40 -10 43 -41 14 -24 -23 -31 -25 -44 -14 -13 11 -10 16 21 41 45 36 67 36
101 3 31 -31 27 -66 -17 -137 -39 -62 -45 -90 -26 -106 18 -15 36 -6 36 18 0
25 22 42 40 31 11 -7 21 0 37 28 26 42 30 82 9 82 -8 0 -18 -5 -22 -11 -4 -8
-9 -8 -17 0 -14 14 18 40 49 41 55 1 60 -68 9 -134 -19 -26 -35 -55 -35 -66 0
-11 -6 -20 -14 -20 -17 0 -26 -22 -26 -67 0 -28 -3 -34 -16 -29 -48 18 -209
28 -298 17 -52 -6 -101 -14 -110 -17 -13 -5 -16 2 -16 39 0 42 -18 75 -34 60
-4 -4 -4 0 -1 8 4 10 -10 37 -35 70 -41 54 -48 85 -30 120 13 22 37 24 74 5
21 -11 24 -15 13 -24 -10 -8 -17 -8 -24 -1 -18 18 -35 0 -28 -29 10 -41 46
-85 58 -73 14 14 37 -5 37 -30 0 -24 18 -33 35 -19 23 19 18 39 -20 102 -44
70 -49 122 -16 150 33 26 61 22 100 -13z m120 -23 c14 -16 5 -42 -16 -50 -29
-11 -58 35 -36 57 11 12 40 8 52 -7z m-737 -282 c31 0 56 -9 91 -33 43 -30 48
-37 42 -60 -9 -34 -8 -34 -38 -20 -21 9 -30 9 -42 -1 -23 -19 -18 -38 13 -45
18 -4 28 -13 29 -25 2 -23 2 -23 -31 -10 -17 6 -27 6 -32 -1 -10 -17 17 -39
71 -54 67 -20 102 -57 119 -127 5 -23 3 -28 -13 -28 -11 0 -48 -13 -83 -30
-34 -16 -75 -30 -89 -30 -23 0 -26 3 -22 28 l4 27 -17 -22 c-19 -26 -51 -30
-80 -9 -15 12 -17 17 -6 27 6 7 12 29 12 48 0 27 -3 32 -12 23 -7 -7 -25 -12
-40 -12 l-28 0 20 20 c11 11 20 24 20 28 0 15 -28 47 -35 40 -9 -9 -45 9 -45
21 0 5 8 8 18 7 14 -1 17 9 20 64 3 68 14 92 38 83 15 -5 44 13 44 28 0 5 -9
4 -19 -3 -15 -9 -23 -9 -35 1 -21 18 -20 41 2 43 43 3 69 -5 89 -30 13 -15 23
-21 23 -14 0 7 -11 24 -25 38 -14 14 -25 33 -25 42 0 15 2 15 10 2 6 -9 26
-15 52 -16z m1465 -18 c-15 -14 -27 -31 -27 -38 0 -7 7 -3 15 9 19 27 67 38
95 23 21 -11 21 -12 4 -31 -21 -24 -40 -24 -53 -1 -6 9 -11 12 -11 5 0 -20 31
-44 50 -38 24 8 43 -41 35 -89 -7 -37 8 -72 26 -60 5 3 9 1 9 -5 0 -13 -32
-30 -47 -24 -7 3 -15 -8 -19 -23 -6 -21 -2 -31 16 -46 l22 -18 -29 0 c-16 0
-34 5 -40 11 -18 18 -28 -34 -13 -62 11 -19 10 -24 -6 -36 -24 -17 -49 -17
-64 2 -18 21 -33 19 -27 -5 8 -30 -36 -26 -108 10 -33 16 -70 30 -82 30 -22 0
-22 1 -8 48 16 53 61 97 109 108 42 8 76 31 76 50 0 15 -10 14 -55 -3 -6 -2
-11 5 -11 16 0 14 9 22 28 26 18 4 28 13 28 25 0 24 -33 35 -60 20 -17 -9 -22
-7 -30 15 -6 15 -10 28 -10 29 0 1 25 20 55 41 46 32 61 37 91 32 26 -4 37 -2
41 9 4 11 9 12 16 5 7 -7 2 -18 -16 -35z m-1072 -106 c3 -5 1 -10 -4 -10 -6 0
-11 -6 -11 -14 0 -12 7 -13 32 -5 18 5 35 9 38 9 3 0 3 -22 2 -50 -4 -48 -3
-50 22 -50 25 0 26 3 26 54 l0 55 48 8 c119 20 399 1 490 -35 12 -4 12 -1 2
17 -15 29 -5 39 18 18 10 -10 24 -17 30 -17 7 0 12 -6 12 -14 0 -19 55 -65 88
-72 43 -10 43 -13 15 -49 l-27 -34 -40 30 c-26 19 -42 25 -47 18 -9 -15 -23 7
-15 26 2 7 -2 19 -10 25 -12 11 -14 -11 -14 -159 0 -135 3 -171 13 -165 6 5
38 27 71 51 67 50 93 53 157 19 58 -31 107 -40 152 -28 31 9 38 7 55 -12 27
-29 49 -74 62 -129 12 -45 26 -57 74 -57 28 0 56 29 56 59 0 27 -12 48 -68
122 -29 38 -33 50 -28 84 8 64 41 85 132 85 61 0 78 4 94 20 l20 20 0 -34 c0
-41 -20 -60 -59 -54 -28 4 -29 3 -25 -31 4 -29 3 -32 -5 -15 -13 30 -50 54
-81 54 -63 0 -69 -66 -12 -131 61 -70 72 -91 72 -135 0 -57 -41 -94 -106 -94
-24 0 -44 -5 -44 -10 0 -25 30 -67 57 -79 25 -11 29 -10 45 9 l18 22 0 -26 c0
-15 -8 -31 -19 -38 -17 -11 -18 -14 -4 -35 12 -18 14 -38 8 -93 -7 -67 -6 -72
14 -77 34 -9 12 -25 -25 -18 -36 6 -44 -4 -19 -25 22 -18 12 -22 -21 -9 -46
18 -107 18 -126 1 -17 -14 -18 -13 -18 11 0 14 8 31 18 37 14 9 13 11 -11 7
-22 -3 -27 -1 -25 12 2 10 13 16 31 16 16 -1 27 5 27 12 0 7 -7 13 -16 13 -8
0 -12 5 -9 10 9 15 41 12 55 -5 7 -8 21 -15 33 -15 17 0 19 5 14 37 -8 47 -45
85 -107 107 -28 10 -54 25 -59 34 -5 9 -23 16 -42 16 -18 1 -34 6 -36 13 -3 7
3 9 16 6 30 -8 63 50 57 100 -9 76 -99 156 -185 165 -60 5 -147 -28 -137 -54
4 -12 1 -14 -14 -9 -15 5 -20 2 -20 -13 0 -11 6 -23 13 -25 7 -3 5 -6 -5 -6
-9 -1 -22 7 -27 17 -8 13 -10 2 -11 -46 0 -115 -23 -143 -196 -236 -55 -29
-108 -58 -120 -66 -18 -11 -34 -5 -145 55 -202 110 -209 118 -209 236 0 69 -1
71 -18 56 -23 -21 -39 -22 -22 -2 16 19 5 34 -20 28 -16 -4 -19 -2 -14 11 8
20 -65 55 -117 56 -79 0 -177 -74 -199 -151 -17 -58 25 -135 62 -113 6 4 9 1
6 -7 -3 -8 -18 -14 -34 -14 -16 0 -33 -6 -37 -13 -5 -8 -37 -26 -72 -42 -67
-30 -91 -55 -101 -108 -8 -37 10 -43 51 -16 14 9 32 13 42 9 17 -6 17 -7 1
-16 -27 -15 -21 -26 11 -21 22 3 29 -1 34 -17 4 -18 2 -20 -21 -14 -27 6 -27
6 -8 -15 11 -13 16 -28 12 -39 -7 -17 -8 -17 -17 -1 -11 19 -90 19 -126 0 -28
-15 -40 -15 -25 0 24 24 14 39 -22 33 -36 -7 -59 9 -26 18 18 5 20 14 20 90 0
50 4 89 11 92 6 5 3 13 -10 22 -12 8 -21 25 -21 39 l0 24 20 -20 c27 -27 36
-25 71 9 33 33 39 73 12 70 -50 -5 -77 3 -104 30 -50 51 -36 108 51 208 38 43
45 69 26 98 -28 42 -92 30 -120 -23 l-15 -27 -1 25 c0 15 5 31 12 38 8 8 3 10
-25 5 -47 -7 -67 9 -67 53 l0 34 20 -20 c16 -16 33 -20 90 -20 80 0 113 -12
129 -47 22 -49 13 -85 -39 -152 -58 -73 -65 -111 -25 -137 28 -18 94 -12 99 9
18 69 44 132 65 157 23 28 29 30 54 21 45 -17 78 -13 145 19 35 17 74 30 87
30 12 0 53 -22 90 -50 38 -27 72 -47 77 -44 4 3 8 77 8 165 0 135 -2 159 -15
159 -10 0 -15 -10 -15 -31 0 -26 -2 -29 -14 -20 -11 10 -22 5 -51 -20 -34 -30
-38 -31 -47 -15 -6 10 -18 26 -28 36 -17 17 -15 18 37 40 29 12 58 32 64 44
12 21 58 65 71 66 4 0 10 -4 13 -10z m-165 -19 c0 -29 -29 -32 -90 -11 l-55
20 61 -6 c41 -4 64 -3 68 5 10 16 16 13 16 -8z m1047 3 l58 6 -58 -21 c-60
-22 -87 -16 -87 18 0 13 3 13 15 3 10 -8 33 -10 72 -6z m-1114 -505 c12 -7 46
-32 75 -56 32 -27 58 -43 67 -39 13 5 14 2 4 -15 -6 -12 -17 -18 -25 -15 -9 3
-14 -1 -14 -12 0 -9 -9 -31 -20 -49 l-19 -32 26 -21 c32 -25 45 -25 67 -1 10
11 25 17 33 14 13 -5 13 -7 -1 -15 -25 -14 -19 -29 8 -22 18 4 27 1 35 -14 16
-29 14 -34 -9 -20 -25 16 -37 4 -16 -17 19 -19 19 -24 6 -45 -8 -13 -10 -13
-10 1 0 22 -24 31 -53 20 -12 -4 -27 -6 -34 -4 -6 2 -14 -1 -18 -6 -13 -21
-32 -12 -28 13 7 35 -37 64 -72 48 -14 -6 -31 -9 -39 -6 -11 4 -8 11 11 30 20
20 24 32 21 72 l-3 47 -74 36 c-55 27 -69 38 -56 43 11 4 15 13 12 26 -11 41
73 66 126 39z m1208 -5 c24 -12 28 -18 19 -29 -8 -10 -7 -17 6 -29 15 -15 13
-17 -15 -27 -16 -6 -49 -20 -73 -32 l-43 -22 2 -55 c1 -42 6 -58 22 -71 18
-14 18 -18 5 -23 -8 -3 -25 -1 -36 5 -16 9 -26 7 -47 -9 -14 -11 -26 -29 -25
-41 1 -21 -20 -29 -31 -12 -3 6 -13 9 -23 9 -9 -1 -27 2 -39 6 -16 5 -25 1
-36 -14 l-14 -21 -6 21 c-3 11 1 27 9 34 20 20 17 29 -7 23 -15 -4 -19 -1 -17
11 2 11 13 17 31 17 30 -1 35 9 11 23 -15 8 -15 10 0 15 10 4 25 -2 37 -14 21
-21 23 -21 56 -5 19 9 33 20 31 24 -32 72 -44 91 -60 95 -20 6 -25 27 -7 27 7
0 32 17 57 38 95 78 131 88 193 56z m-263 -414 c41 -5 91 -14 113 -20 l39 -11
0 -73 0 -74 -39 14 c-133 46 -888 45 -1023 -1 l-38 -13 0 74 0 73 38 11 c37
10 176 27 287 34 101 6 545 -4 623 -14z m-1041 -121 l63 -11 0 -43 c0 -52 11
-62 43 -40 14 9 47 18 74 21 l49 6 -5 -48 c-6 -48 -6 -49 -44 -52 -21 -2 -78
6 -125 17 -125 29 -217 36 -273 18 l-45 -14 16 71 c13 60 19 71 40 77 39 11
138 10 207 -2z m1514 -6 c6 -6 17 -41 23 -76 13 -65 12 -66 -8 -55 -36 20
-182 14 -288 -11 -53 -12 -114 -21 -135 -19 -38 3 -38 3 -41 52 l-3 49 47 -7
c26 -3 58 -13 71 -21 32 -21 43 -12 43 35 0 21 4 42 10 45 39 24 259 30 281 8z"/>
<path d="M620 1751 c0 -5 7 -14 15 -21 12 -10 19 -10 28 -1 9 9 9 14 -3 21
-19 12 -40 13 -40 1z"/>
<path d="M1943 1753 c-18 -7 -16 -20 3 -27 17 -6 44 9 44 25 0 10 -27 11 -47
2z"/>
<path d="M1346 1614 c4 -22 2 -31 -8 -31 -21 0 -68 -34 -68 -49 0 -8 10 -14
25 -14 27 0 34 -17 10 -26 -22 -9 -18 -27 5 -21 13 3 20 0 20 -9 0 -7 -18 -18
-40 -24 -41 -11 -70 -33 -70 -53 0 -17 66 -39 120 -41 41 -1 45 1 42 21 -3 23
13 40 23 23 13 -21 24 -9 18 20 -3 17 -2 30 3 28 12 -4 16 4 10 22 -2 8 -6 32
-8 53 -4 32 -1 38 19 43 13 4 20 10 17 15 -3 6 -14 7 -25 4 -15 -5 -19 -1 -19
19 0 28 -9 33 -29 14 -10 -11 -16 -8 -31 12 l-20 25 6 -31z m-19 -70 c-3 -3
-12 -4 -19 -1 -8 3 -5 6 6 6 11 1 17 -2 13 -5z"/>
<path d="M1157 1565 c-27 -38 -52 -63 -58 -59 -8 4 -9 -1 -4 -16 6 -18 4 -22
-9 -17 -8 3 -18 2 -21 -3 -3 -4 1 -11 7 -13 7 -3 4 -6 -7 -6 -15 -1 -17 -3 -6
-10 9 -6 10 -11 2 -15 -6 -4 -11 -11 -11 -17 0 -15 28 -10 38 6 7 14 14 13 53
-9 53 -31 55 -31 62 -5 6 23 -24 39 -74 39 -25 0 -28 2 -17 14 7 7 19 11 27 8
9 -3 12 0 9 9 -3 8 14 42 38 76 24 34 44 66 44 72 0 28 -31 5 -73 -54z"/>
<path d="M1510 1515 c0 -58 2 -65 20 -65 18 0 20 7 20 65 0 58 -2 65 -20 65
-18 0 -20 -7 -20 -65z"/>
<path d="M1220 1497 c0 -16 29 -18 57 -3 l28 15 -42 -2 c-24 -1 -43 -6 -43
-10z"/>
<path d="M1574 1379 c-4 -7 -23 -9 -52 -5 -74 10 -105 -36 -62 -91 11 -14 20
-36 20 -49 0 -20 -5 -24 -30 -24 -24 0 -32 6 -40 28 -23 64 -34 77 -67 74 -17
-2 -45 4 -62 12 -43 23 -58 20 -111 -19 -26 -19 -51 -35 -55 -35 -3 0 -4 14 0
31 5 21 4 29 -3 25 -6 -3 -13 0 -15 6 -4 10 -6 10 -6 0 -1 -7 -5 -10 -11 -7
-5 3 -7 0 -4 -8 3 -8 -1 -14 -10 -14 -9 0 -12 6 -8 16 5 13 4 13 -9 1 -18 -16
-21 -42 -5 -34 6 3 2 -2 -8 -10 -19 -15 -12 -22 17 -17 4 1 10 -6 13 -14 3 -8
10 -12 15 -9 5 3 6 -3 2 -12 -4 -12 -3 -15 5 -10 7 4 12 1 12 -8 0 -23 37 -20
50 3 8 16 6 20 -8 23 -31 7 47 40 95 40 50 0 83 -23 103 -73 15 -34 6 -79 -16
-79 -8 0 -12 -5 -8 -11 3 -6 14 -9 23 -6 9 2 22 -2 29 -10 7 -7 25 -13 41 -13
16 0 36 -9 47 -21 19 -21 19 -21 -6 -19 -38 3 -47 0 -25 -10 17 -7 17 -9 3 -9
-21 -1 -23 -14 -7 -40 12 -17 13 -17 31 1 13 13 26 16 46 11 24 -6 26 -5 13
10 -12 15 -11 17 2 17 9 0 19 5 22 11 4 6 0 9 -11 7 -19 -3 -38 44 -29 73 4
12 -1 15 -24 11 -21 -3 -33 2 -45 19 -22 33 -21 36 18 31 25 -3 40 2 55 17 27
27 26 50 -4 95 -14 20 -25 43 -25 51 0 22 38 18 52 -5 15 -23 33 -27 25 -6 -4
9 3 16 19 20 15 4 24 14 24 26 0 22 -5 25 -16 9z"/>
<path d="M1206 1196 c-19 -20 -41 -36 -48 -36 -9 -1 -8 -4 3 -13 9 -7 19 -27
22 -44 5 -26 2 -35 -12 -43 -14 -7 -22 -6 -31 6 -11 13 -15 12 -31 -5 -24 -25
-24 -32 -1 -24 14 5 15 3 5 -8 -20 -21 -16 -24 31 -24 25 0 43 2 40 6 -7 13
25 31 45 24 23 -7 38 10 16 19 -20 7 -19 60 2 81 9 10 29 22 44 27 23 8 26 13
20 36 -6 21 -14 28 -38 30 -25 2 -39 -4 -67 -32z"/>
<path d="M1300 955 c0 -63 1 -65 25 -65 24 0 25 2 25 65 0 63 -1 65 -25 65
-24 0 -25 -2 -25 -65z"/>
</g>
</svg>
